<svg xmlns="http://www.w3.org/2000/svg" viewBox="0 0 49.25 49.25"><defs><style>.cls-1{fill:#93d500;}.cls-2{fill:#fff;}</style></defs><g id="Capa_2" data-name="Capa 2"><g id="Capa_1-2" data-name="Capa 1"><rect class="cls-1" width="49.25" height="49.25"/><path class="cls-2" d="M36.35,46.79H30.91a.39.39,0,0,1-.27-.68l10.59-9.83a3.64,3.64,0,0,0,1.15-2.65v-4.8a2.14,2.14,0,0,0-2.14-2.14H35.1a3,3,0,0,0-2,.77L21.35,38.07a.36.36,0,0,1-.26.11H18.45a.4.4,0,0,1-.4-.4V35.2a.41.41,0,0,1,.13-.29L30.57,23.59a5.89,5.89,0,0,1,4-1.53h5.88a6.5,6.5,0,0,1,6.51,6.51v4.8a8.74,8.74,0,0,1-2.83,6.45l-7.47,6.87a.43.43,0,0,1-.27.1"/><path class="cls-2" d="M19.84,22.16,12.37,29a8.74,8.74,0,0,0-2.83,6.45v4.8a6.5,6.5,0,0,0,6.51,6.51h5.88a5.86,5.86,0,0,0,4-1.54L38.28,33.93a.39.39,0,0,0,.13-.29V31.07a.4.4,0,0,0-.39-.4H35.37a.42.42,0,0,0-.26.1L23.36,41.39a3,3,0,0,1-2,.77H16.22A2.14,2.14,0,0,1,14.08,40v-4.8a3.64,3.64,0,0,1,1.15-2.65l10.59-9.83a.39.39,0,0,0-.27-.68H20.11a.39.39,0,0,0-.27.1"/></g></g></svg>